<svg width="16" height="16" viewBox="0 0 16 16" fill="none" xmlns="http://www.w3.org/2000/svg">
<path d="M11.0104 6.23224H14.0104V3.23224" stroke="white" stroke-width="1.5" stroke-linecap="round" stroke-linejoin="round"/>
<path d="M4.1109 4.11091C4.62162 3.60019 5.22794 3.19506 5.89523 2.91866C6.56252 2.64226 7.27772 2.5 7.99999 2.5C8.72226 2.5 9.43746 2.64226 10.1047 2.91866C10.772 3.19506 11.3784 3.60019 11.8891 4.11091L14.0104 6.23223" stroke="white" stroke-width="1.5" stroke-linecap="round" stroke-linejoin="round"/>
<path d="M4.98956 9.76776H1.98956V12.7678" stroke="white" stroke-width="1.5" stroke-linecap="round" stroke-linejoin="round"/>
<path d="M11.8891 11.8891C11.3784 12.3998 10.7721 12.8049 10.1048 13.0813C9.43747 13.3577 8.72227 13.5 8 13.5C7.27773 13.5 6.56253 13.3577 5.89524 13.0813C5.22795 12.8049 4.62164 12.3998 4.11091 11.8891L1.98959 9.76776" stroke="white" stroke-width="1.5" stroke-linecap="round" stroke-linejoin="round"/>
</svg>
