<svg width="21" height="20" viewBox="0 0 21 20" fill="none" xmlns="http://www.w3.org/2000/svg">
<path d="M4.99086 8.12501C4.98983 7.38377 5.13551 6.64965 5.41952 5.96497C5.70353 5.2803 6.12024 4.6586 6.64564 4.13573C7.17104 3.61285 7.79473 3.19914 8.48077 2.91843C9.1668 2.63772 9.90162 2.49557 10.6428 2.50017C13.7358 2.52316 16.2098 5.09402 16.2098 8.19563V8.75001C16.2098 11.5481 16.7952 13.1718 17.3108 14.0592C17.3663 14.1541 17.3959 14.2619 17.3965 14.3718C17.397 14.4816 17.3686 14.5897 17.3141 14.6852C17.2596 14.7806 17.1809 14.8599 17.0859 14.9152C16.9909 14.9705 16.883 14.9997 16.7731 15H4.42685C4.31694 14.9997 4.20905 14.9705 4.11407 14.9152C4.01908 14.8599 3.94036 14.7805 3.88584 14.6851C3.83132 14.5897 3.80293 14.4815 3.80354 14.3716C3.80414 14.2617 3.83373 14.1539 3.8893 14.0591C4.40518 13.1716 4.99086 11.548 4.99086 8.75001L4.99086 8.12501Z" stroke="white" stroke-width="1.2" stroke-linecap="round" stroke-linejoin="round"/>
<path d="M8.09998 15V15.625C8.09998 16.288 8.36337 16.9239 8.83221 17.3928C9.30105 17.8616 9.93693 18.125 10.6 18.125C11.263 18.125 11.8989 17.8616 12.3677 17.3928C12.8366 16.9239 13.1 16.288 13.1 15.625V15" stroke="white" stroke-width="1.2" stroke-linecap="round" stroke-linejoin="round"/>
</svg>
