<svg width="21" height="20" viewBox="0 0 21 20" fill="none" xmlns="http://www.w3.org/2000/svg">
<path d="M10.6 17.5C14.7421 17.5 18.1 14.1421 18.1 10C18.1 5.85786 14.7421 2.5 10.6 2.5C6.45784 2.5 3.09998 5.85786 3.09998 10C3.09998 14.1421 6.45784 17.5 10.6 17.5Z" stroke="white" stroke-width="1.2" stroke-miterlimit="10"/>
<path d="M6.84998 10.9375C7.36774 10.9375 7.78748 10.5178 7.78748 10C7.78748 9.48223 7.36774 9.0625 6.84998 9.0625C6.33221 9.0625 5.91248 9.48223 5.91248 10C5.91248 10.5178 6.33221 10.9375 6.84998 10.9375Z" fill="white"/>
<path d="M10.6 10.9375C11.1177 10.9375 11.5375 10.5178 11.5375 10C11.5375 9.48223 11.1177 9.0625 10.6 9.0625C10.0822 9.0625 9.66248 9.48223 9.66248 10C9.66248 10.5178 10.0822 10.9375 10.6 10.9375Z" fill="white"/>
<path d="M14.35 10.9375C14.8677 10.9375 15.2875 10.5178 15.2875 10C15.2875 9.48223 14.8677 9.0625 14.35 9.0625C13.8322 9.0625 13.4125 9.48223 13.4125 10C13.4125 10.5178 13.8322 10.9375 14.35 10.9375Z" fill="white"/>
</svg>
