<svg width="21" height="20" viewBox="0 0 21 20" fill="none" xmlns="http://www.w3.org/2000/svg">
<path d="M10.6001 14.3751C13.0163 14.3751 14.9751 12.4163 14.9751 10.0001C14.9751 7.58382 13.0163 5.62506 10.6001 5.62506C8.18385 5.62506 6.2251 7.58382 6.2251 10.0001C6.2251 12.4163 8.18385 14.3751 10.6001 14.3751Z" stroke="white" stroke-width="1.2" stroke-linecap="round" stroke-linejoin="round"/>
<path d="M17.4751 9.37508L18.2803 8.16724C18.3328 8.08943 18.3675 8.00101 18.382 7.90828C18.3964 7.81555 18.3903 7.72077 18.364 7.63067C18.2121 7.13045 18.0119 6.64618 17.7662 6.18472C17.7212 6.10257 17.6586 6.03137 17.5829 5.97621C17.5072 5.92104 17.4203 5.88327 17.3283 5.86559L15.9034 5.5806L15.0196 4.69673L14.7346 3.27184C14.7169 3.17985 14.6791 3.0929 14.624 3.01719C14.5688 2.94149 14.4976 2.8789 14.4154 2.8339C13.9539 2.58825 13.4697 2.38807 12.9694 2.23618C12.8793 2.20988 12.7845 2.20375 12.6918 2.2182C12.5991 2.23266 12.5107 2.26735 12.4329 2.31982L11.2251 3.125H9.97509L8.76733 2.31982C8.68951 2.26735 8.6011 2.23266 8.50837 2.2182C8.41564 2.20375 8.32086 2.20988 8.23077 2.23618C7.73053 2.38807 7.24625 2.58825 6.78477 2.83389C6.70261 2.8789 6.63141 2.94149 6.57623 3.0172C6.52106 3.0929 6.48329 3.17986 6.46561 3.27185L6.18069 4.69665L5.29675 5.5806L3.87193 5.86552C3.77994 5.8832 3.69299 5.92097 3.61729 5.97613C3.54158 6.0313 3.47899 6.1025 3.43399 6.18465C3.1883 6.64614 2.98809 7.13043 2.83618 7.63068C2.80988 7.72077 2.80375 7.81555 2.81821 7.90828C2.83267 8.00101 2.86737 8.08942 2.91984 8.16723L3.72502 9.375V10.625L2.91984 11.8328C2.86737 11.9106 2.83267 11.999 2.81822 12.0917C2.80376 12.1845 2.80989 12.2792 2.83619 12.3693C2.98806 12.8696 3.18824 13.3539 3.4339 13.8154C3.47891 13.8975 3.5415 13.9687 3.6172 14.0239C3.6929 14.079 3.77985 14.1168 3.87184 14.1345L5.29675 14.4195L6.18061 15.3033L6.46554 16.7282C6.48322 16.8202 6.52099 16.9072 6.57615 16.9829C6.63132 17.0586 6.70252 17.1212 6.78467 17.1662C7.24613 17.4119 7.7304 17.6121 8.23064 17.7639C8.32073 17.7902 8.4155 17.7963 8.50822 17.7819C8.60095 17.7674 8.68935 17.7327 8.76716 17.6803L9.97502 16.8751H11.225L12.4329 17.6803C12.5107 17.7328 12.5991 17.7675 12.6918 17.7819C12.7845 17.7964 12.8793 17.7903 12.9694 17.764C13.4696 17.6121 13.9539 17.4119 14.4154 17.1663C14.4975 17.1213 14.5687 17.0587 14.6239 16.983C14.679 16.9073 14.7168 16.8203 14.7345 16.7283L15.0195 15.3034L15.9034 14.4195L17.3282 14.1346C17.4202 14.1169 17.5072 14.0791 17.5829 14.0239C17.6586 13.9688 17.7212 13.8976 17.7662 13.8154C18.0119 13.354 18.2121 12.8697 18.364 12.3695C18.3903 12.2794 18.3964 12.1846 18.382 12.0919C18.3675 11.9991 18.3328 11.9107 18.2803 11.8329L17.4751 10.6251V9.37508Z" stroke="white" stroke-width="1.2" stroke-linecap="round" stroke-linejoin="round"/>
</svg>
