<svg width="21" height="20" viewBox="0 0 21 20" fill="none" xmlns="http://www.w3.org/2000/svg">
<path d="M10.6 17.5C14.7421 17.5 18.1 14.1421 18.1 10C18.1 5.85786 14.7421 2.5 10.6 2.5C6.45784 2.5 3.09998 5.85786 3.09998 10C3.09998 14.1421 6.45784 17.5 10.6 17.5Z" stroke="white" stroke-width="1.2" stroke-linecap="round" stroke-linejoin="round"/>
<path d="M10.6 11.875V11.25C11.0944 11.25 11.5778 11.1034 11.9889 10.8287C12.4 10.554 12.7205 10.1635 12.9097 9.70671C13.0989 9.24989 13.1484 8.74723 13.0519 8.26228C12.9555 7.77732 12.7174 7.33187 12.3677 6.98223C12.0181 6.6326 11.5727 6.3945 11.0877 6.29804C10.6027 6.20157 10.1001 6.25108 9.64327 6.4403C9.18645 6.62952 8.79601 6.94995 8.5213 7.36108C8.2466 7.7722 8.09998 8.25555 8.09998 8.75" stroke="white" stroke-width="1.2" stroke-linecap="round" stroke-linejoin="round"/>
<path d="M10.6 15.3125C11.1177 15.3125 11.5375 14.8928 11.5375 14.375C11.5375 13.8572 11.1177 13.4375 10.6 13.4375C10.0822 13.4375 9.66248 13.8572 9.66248 14.375C9.66248 14.8928 10.0822 15.3125 10.6 15.3125Z" fill="white"/>
</svg>
